<svg width="16" height="20" viewBox="0 0 16 20" fill="none" xmlns="http://www.w3.org/2000/svg">
<path d="M7 10C7 9.44771 6.55228 9 6 9C5.44772 9 5 9.44771 5 10V14C5 14.5523 5.44772 15 6 15C6.55228 15 7 14.5523 7 14V10Z" fill="#000000"/>
<path d="M10 9C10.5523 9 11 9.44771 11 10V14C11 14.5523 10.5523 15 10 15C9.44771 15 9 14.5523 9 14V10C9 9.44771 9.44771 9 10 9Z" fill="#000000"/>
<path fill-rule="evenodd" clip-rule="evenodd" d="M12 4V3C12 1.34315 10.6569 0 9 0H7C5.34315 0 4 1.34315 4 3V4H1C0.447715 4 0 4.44772 0 5C0 5.55228 0.447715 6 1 6V17C1 18.6569 2.34315 20 4 20H12C13.6569 20 15 18.6569 15 17V6C15.5523 6 16 5.55228 16 5C16 4.44772 15.5523 4 15 4H12ZM3 6V17C3 17.5523 3.44772 18 4 18H12C12.5523 18 13 17.5523 13 17V6H3ZM6 4V3C6 2.44772 6.44772 2 7 2H9C9.55228 2 10 2.44772 10 3V4H6Z" fill="#000000"/>
<defs>
<linearGradient id="paint0_linear_4516_572" x1="8" y1="0" x2="8" y2="20" gradientUnits="userSpaceOnUse">
<stop stop-color="#EB7053"/>
<stop offset="1" stop-color="#000000"/>
</linearGradient>
<linearGradient id="paint1_linear_4516_572" x1="8" y1="0" x2="8" y2="20" gradientUnits="userSpaceOnUse">
<stop stop-color="#EB7053"/>
<stop offset="1" stop-color="#000000"/>
</linearGradient>
<linearGradient id="paint2_linear_4516_572" x1="8" y1="0" x2="8" y2="20" gradientUnits="userSpaceOnUse">
<stop stop-color="#EB7053"/>
<stop offset="1" stop-color="#000000"/>
</linearGradient>
</defs>
</svg>
